<svg xmlns="http://www.w3.org/2000/svg" width="20" height="15" viewBox="0 0 20 15" fill="none">
  <path fill-rule="evenodd" clip-rule="evenodd" d="M0.5 1.375C0.5 0.960786 0.835786 0.625 1.25 0.625H2.5C2.91421 0.625 3.25 0.960786 3.25 1.375C3.25 1.78921 2.91421 2.125 2.5 2.125H1.25C0.835786 2.125 0.5 1.78921 0.5 1.375ZM5.5 1.375C5.5 0.960786 5.83579 0.625 6.25 0.625H18.75C19.1642 0.625 19.5 0.960786 19.5 1.375C19.5 1.78921 19.1642 2.125 18.75 2.125H6.25C5.83579 2.125 5.5 1.78921 5.5 1.375ZM0.5 7.625C0.5 7.21079 0.835786 6.875 1.25 6.875H2.5C2.91421 6.875 3.25 7.21079 3.25 7.625C3.25 8.03921 2.91421 8.375 2.5 8.375H1.25C0.835786 8.375 0.5 8.03921 0.5 7.625ZM5.5 7.625C5.5 7.21079 5.83579 6.875 6.25 6.875H18.75C19.1642 6.875 19.5 7.21079 19.5 7.625C19.5 8.03921 19.1642 8.375 18.75 8.375H6.25C5.83579 8.375 5.5 8.03921 5.5 7.625ZM0.5 13.875C0.5 13.4608 0.835786 13.125 1.25 13.125H2.5C2.91421 13.125 3.25 13.4608 3.25 13.875C3.25 14.2892 2.91421 14.625 2.5 14.625H1.25C0.835786 14.625 0.5 14.2892 0.5 13.875ZM5.5 13.875C5.5 13.4608 5.83579 13.125 6.25 13.125H18.75C19.1642 13.125 19.5 13.4608 19.5 13.875C19.5 14.2892 19.1642 14.625 18.75 14.625H6.25C5.83579 14.625 5.5 14.2892 5.5 13.875Z" fill="#8B8787"/>
</svg>